<mxfile host="app.diagrams.net" agent="Mozilla/5.0 (Windows NT 10.0; Win64; x64) AppleWebKit/537.36 (KHTML, like Gecko) Chrome/127.0.0.0 Safari/537.36" version="24.7.6">
  <diagram name="Page-1" id="JeuteiJrWNUM56fj1YCd">
    <mxGraphModel dx="794" dy="420" grid="1" gridSize="10" guides="1" tooltips="1" connect="1" arrows="1" fold="1" page="1" pageScale="1" pageWidth="850" pageHeight="1100" math="0" shadow="0">
      <root>
        <object label="" id="0">
          <mxCell />
        </object>
        <mxCell id="1" parent="0" />
        <object label="Citi User&lt;div&gt;&lt;br&gt;&lt;/div&gt;" id="f4_67E3yVyobe0MgWhKP-1">
          <mxCell style="shape=umlActor;verticalLabelPosition=bottom;verticalAlign=top;html=1;outlineConnect=0;" parent="1" vertex="1">
            <mxGeometry x="40" y="100" width="30" height="60" as="geometry" />
          </mxCell>
        </object>
        <mxCell id="f4_67E3yVyobe0MgWhKP-9" value="" style="endArrow=none;dashed=1;html=1;dashPattern=1 3;strokeWidth=2;rounded=0;" parent="1" target="f4_67E3yVyobe0MgWhKP-13" edge="1">
          <mxGeometry width="50" height="50" relative="1" as="geometry">
            <mxPoint x="120" y="130" as="sourcePoint" />
            <mxPoint x="170" y="60" as="targetPoint" />
          </mxGeometry>
        </mxCell>
        <mxCell id="f4_67E3yVyobe0MgWhKP-10" value="" style="endArrow=none;html=1;rounded=0;" parent="1" target="f4_67E3yVyobe0MgWhKP-8" edge="1">
          <mxGeometry width="50" height="50" relative="1" as="geometry">
            <mxPoint x="119.5" y="160" as="sourcePoint" />
            <mxPoint x="119.5" y="100" as="targetPoint" />
          </mxGeometry>
        </mxCell>
        <mxCell id="f4_67E3yVyobe0MgWhKP-8" value="SSO Auth" style="text;html=1;align=center;verticalAlign=middle;whiteSpace=wrap;rounded=0;" parent="1" vertex="1">
          <mxGeometry x="100" y="160" width="60" height="30" as="geometry" />
        </mxCell>
        <mxCell id="f4_67E3yVyobe0MgWhKP-11" value="" style="endArrow=none;html=1;rounded=0;" parent="1" edge="1">
          <mxGeometry width="50" height="50" relative="1" as="geometry">
            <mxPoint x="120" y="155" as="sourcePoint" />
            <mxPoint x="120" y="105" as="targetPoint" />
          </mxGeometry>
        </mxCell>
        <mxCell id="f4_67E3yVyobe0MgWhKP-12" value="" style="endArrow=classic;html=1;rounded=0;exitX=0.5;exitY=0.5;exitDx=0;exitDy=0;exitPerimeter=0;" parent="1" source="f4_67E3yVyobe0MgWhKP-1" edge="1">
          <mxGeometry width="50" height="50" relative="1" as="geometry">
            <mxPoint x="380" y="150" as="sourcePoint" />
            <mxPoint x="120" y="130" as="targetPoint" />
          </mxGeometry>
        </mxCell>
        <mxCell id="f4_67E3yVyobe0MgWhKP-13" value="Citi Single Sign on" style="rounded=1;whiteSpace=wrap;html=1;" parent="1" vertex="1">
          <mxGeometry x="120" y="30" width="110" height="40" as="geometry" />
        </mxCell>
        <mxCell id="f4_67E3yVyobe0MgWhKP-14" value="UI" style="swimlane;whiteSpace=wrap;html=1;" parent="1" vertex="1">
          <mxGeometry x="180" y="100" width="70" height="60" as="geometry" />
        </mxCell>
        <mxCell id="f4_67E3yVyobe0MgWhKP-15" value="" style="endArrow=classic;html=1;rounded=0;entryX=0;entryY=0.5;entryDx=0;entryDy=0;" parent="1" target="f4_67E3yVyobe0MgWhKP-14" edge="1">
          <mxGeometry width="50" height="50" relative="1" as="geometry">
            <mxPoint x="120" y="130" as="sourcePoint" />
            <mxPoint x="430" y="100" as="targetPoint" />
          </mxGeometry>
        </mxCell>
        <mxCell id="f4_67E3yVyobe0MgWhKP-16" value="" style="whiteSpace=wrap;html=1;aspect=fixed;rounded=1;dashed=1;fillColor=#fff2cc;strokeColor=#d6b656;gradientColor=#ffffff;gradientDirection=north;" parent="1" vertex="1">
          <mxGeometry x="300" y="74" width="290" height="290" as="geometry" />
        </mxCell>
        <mxCell id="f4_67E3yVyobe0MgWhKP-31" value="" style="edgeStyle=orthogonalEdgeStyle;rounded=0;orthogonalLoop=1;jettySize=auto;html=1;" parent="1" source="f4_67E3yVyobe0MgWhKP-19" target="f4_67E3yVyobe0MgWhKP-29" edge="1">
          <mxGeometry relative="1" as="geometry" />
        </mxCell>
        <mxCell id="f4_67E3yVyobe0MgWhKP-19" value="Dashboard&lt;div&gt;(PEGA App)&lt;/div&gt;" style="rounded=1;whiteSpace=wrap;html=1;" parent="1" vertex="1">
          <mxGeometry x="315" y="114" width="110" height="40" as="geometry" />
        </mxCell>
        <mxCell id="f4_67E3yVyobe0MgWhKP-23" value="" style="endArrow=classic;html=1;rounded=0;entryX=0;entryY=0.5;entryDx=0;entryDy=0;" parent="1" target="f4_67E3yVyobe0MgWhKP-19" edge="1">
          <mxGeometry width="50" height="50" relative="1" as="geometry">
            <mxPoint x="250" y="134" as="sourcePoint" />
            <mxPoint x="319.99999999999994" y="129.57000000000005" as="targetPoint" />
          </mxGeometry>
        </mxCell>
        <mxCell id="f4_67E3yVyobe0MgWhKP-27" value="Feedback Decision Adoption" style="ellipse;whiteSpace=wrap;html=1;dashed=1;" parent="1" vertex="1">
          <mxGeometry x="490" y="194" width="90" height="60" as="geometry" />
        </mxCell>
        <mxCell id="f4_67E3yVyobe0MgWhKP-32" value="" style="edgeStyle=orthogonalEdgeStyle;rounded=0;orthogonalLoop=1;jettySize=auto;html=1;dashed=1;" parent="1" source="f4_67E3yVyobe0MgWhKP-29" target="f4_67E3yVyobe0MgWhKP-27" edge="1">
          <mxGeometry relative="1" as="geometry" />
        </mxCell>
        <mxCell id="f4_67E3yVyobe0MgWhKP-29" value="Predictive Model" style="ellipse;whiteSpace=wrap;html=1;" parent="1" vertex="1">
          <mxGeometry x="310" y="194" width="120" height="60" as="geometry" />
        </mxCell>
        <mxCell id="f4_67E3yVyobe0MgWhKP-33" value="" style="rounded=1;whiteSpace=wrap;html=1;dashed=1;gradientColor=#E6FFCC;" parent="1" vertex="1">
          <mxGeometry x="680" y="325" width="160" height="270" as="geometry" />
        </mxCell>
        <mxCell id="f4_67E3yVyobe0MgWhKP-34" value="API&#39;s" style="text;html=1;align=center;verticalAlign=middle;whiteSpace=wrap;rounded=0;" parent="1" vertex="1">
          <mxGeometry x="695" y="325" width="120" height="30" as="geometry" />
        </mxCell>
        <mxCell id="f4_67E3yVyobe0MgWhKP-38" value="Email" style="rounded=0;whiteSpace=wrap;html=1;" parent="1" vertex="1">
          <mxGeometry x="710" y="363" width="100" height="40" as="geometry" />
        </mxCell>
        <mxCell id="f4_67E3yVyobe0MgWhKP-39" value="CPM API" style="rounded=0;whiteSpace=wrap;html=1;" parent="1" vertex="1">
          <mxGeometry x="710" y="421" width="100" height="40" as="geometry" />
        </mxCell>
        <mxCell id="f4_67E3yVyobe0MgWhKP-40" value="PTS API" style="rounded=0;whiteSpace=wrap;html=1;" parent="1" vertex="1">
          <mxGeometry x="710" y="481" width="100" height="40" as="geometry" />
        </mxCell>
        <mxCell id="f4_67E3yVyobe0MgWhKP-41" value="Citi Global Directory API" style="rounded=0;whiteSpace=wrap;html=1;" parent="1" vertex="1">
          <mxGeometry x="710" y="540" width="100" height="40" as="geometry" />
        </mxCell>
        <mxCell id="f4_67E3yVyobe0MgWhKP-60" value="Oracle DB 19.3.0.0.0" style="shape=mxgraph.veeam.3d.medium_datastore;whiteSpace=wrap;html=1;boundedLbl=1;backgroundOutline=1;size=15;sketch=0;shadow=0;dashed=0;labelPosition=center;verticalLabelPosition=bottom;verticalAlign=top;outlineConnect=0;" parent="1" vertex="1">
          <mxGeometry x="145" y="290" width="60" height="80" as="geometry" />
        </mxCell>
        <mxCell id="f4_67E3yVyobe0MgWhKP-69" value="" style="whiteSpace=wrap;html=1;aspect=fixed;rounded=1;dashed=1;fillColor=#E3E6FC;strokeColor=#6c8ebf;gradientDirection=north;gradientColor=#B5F0FF;" parent="1" vertex="1">
          <mxGeometry x="680" y="50" width="160" height="160" as="geometry" />
        </mxCell>
        <mxCell id="JpyrA56GdO4GCkvxSW_a-2" value="" style="verticalLabelPosition=bottom;html=1;verticalAlign=top;align=center;strokeColor=none;fillColor=#00BEF2;shape=mxgraph.azure.file_2;pointerEvents=1;" vertex="1" parent="1">
          <mxGeometry x="700" y="140" width="47.5" height="50" as="geometry" />
        </mxCell>
        <mxCell id="JpyrA56GdO4GCkvxSW_a-3" value="Document Hub Repository" style="text;html=1;align=center;verticalAlign=middle;whiteSpace=wrap;rounded=0;" vertex="1" parent="1">
          <mxGeometry x="690" y="60" width="130" height="30" as="geometry" />
        </mxCell>
        <mxCell id="JpyrA56GdO4GCkvxSW_a-9" value="" style="endArrow=classic;html=1;rounded=0;entryX=-0.017;entryY=0.625;entryDx=0;entryDy=0;entryPerimeter=0;" edge="1" parent="1" target="f4_67E3yVyobe0MgWhKP-69">
          <mxGeometry relative="1" as="geometry">
            <mxPoint x="590" y="150" as="sourcePoint" />
            <mxPoint x="650" y="150" as="targetPoint" />
          </mxGeometry>
        </mxCell>
        <mxCell id="JpyrA56GdO4GCkvxSW_a-10" value="FID Security" style="edgeLabel;resizable=0;html=1;;align=center;verticalAlign=middle;" connectable="0" vertex="1" parent="JpyrA56GdO4GCkvxSW_a-9">
          <mxGeometry relative="1" as="geometry" />
        </mxCell>
        <mxCell id="JpyrA56GdO4GCkvxSW_a-12" value="Automation Command Center" style="text;html=1;align=center;verticalAlign=middle;whiteSpace=wrap;rounded=0;" vertex="1" parent="1">
          <mxGeometry x="363" y="51" width="180" height="30" as="geometry" />
        </mxCell>
        <mxCell id="JpyrA56GdO4GCkvxSW_a-13" value="" style="endArrow=none;dashed=1;html=1;rounded=0;exitX=0.993;exitY=0.347;exitDx=0;exitDy=0;exitPerimeter=0;entryX=0.005;entryY=0.349;entryDx=0;entryDy=0;entryPerimeter=0;" edge="1" parent="1">
          <mxGeometry width="50" height="50" relative="1" as="geometry">
            <mxPoint x="587.97" y="176" as="sourcePoint" />
            <mxPoint x="301.45000000000005" y="176.58000000000004" as="targetPoint" />
          </mxGeometry>
        </mxCell>
        <mxCell id="JpyrA56GdO4GCkvxSW_a-17" value="" style="endArrow=none;dashed=1;html=1;rounded=0;entryX=0;entryY=0.697;entryDx=0;entryDy=0;entryPerimeter=0;exitX=0.993;exitY=0.692;exitDx=0;exitDy=0;exitPerimeter=0;" edge="1" parent="1" target="f4_67E3yVyobe0MgWhKP-16">
          <mxGeometry width="50" height="50" relative="1" as="geometry">
            <mxPoint x="584.3" y="279.76" as="sourcePoint" />
            <mxPoint x="460" y="264" as="targetPoint" />
          </mxGeometry>
        </mxCell>
        <mxCell id="JpyrA56GdO4GCkvxSW_a-19" value="Application Layer" style="text;html=1;align=center;verticalAlign=middle;whiteSpace=wrap;rounded=0;" vertex="1" parent="1">
          <mxGeometry x="480" y="154" width="110" height="30" as="geometry" />
        </mxCell>
        <mxCell id="JpyrA56GdO4GCkvxSW_a-23" value="Enterprise Layer" style="text;html=1;align=center;verticalAlign=middle;whiteSpace=wrap;rounded=0;" vertex="1" parent="1">
          <mxGeometry x="491" y="255" width="100" height="30" as="geometry" />
        </mxCell>
        <mxCell id="JpyrA56GdO4GCkvxSW_a-24" value="Pega Platform Layer" style="text;html=1;align=center;verticalAlign=middle;whiteSpace=wrap;rounded=0;" vertex="1" parent="1">
          <mxGeometry x="450" y="339" width="115" height="30" as="geometry" />
        </mxCell>
        <mxCell id="JpyrA56GdO4GCkvxSW_a-28" value="" style="endArrow=classic;html=1;rounded=0;entryX=-0.017;entryY=0.158;entryDx=0;entryDy=0;entryPerimeter=0;" edge="1" parent="1" target="f4_67E3yVyobe0MgWhKP-33">
          <mxGeometry width="50" height="50" relative="1" as="geometry">
            <mxPoint x="590" y="272" as="sourcePoint" />
            <mxPoint x="640" y="222" as="targetPoint" />
          </mxGeometry>
        </mxCell>
        <mxCell id="JpyrA56GdO4GCkvxSW_a-30" value="" style="endArrow=classic;html=1;rounded=0;exitX=0.002;exitY=0.848;exitDx=0;exitDy=0;exitPerimeter=0;" edge="1" parent="1" source="f4_67E3yVyobe0MgWhKP-16">
          <mxGeometry width="50" height="50" relative="1" as="geometry">
            <mxPoint x="230" y="355" as="sourcePoint" />
            <mxPoint x="200" y="320" as="targetPoint" />
          </mxGeometry>
        </mxCell>
        <mxCell id="JpyrA56GdO4GCkvxSW_a-31" value="" style="rounded=1;whiteSpace=wrap;html=1;dashed=1;fillColor=#d5e8d4;strokeColor=#82b366;gradientColor=#FFFFFF;gradientDirection=north;" vertex="1" parent="1">
          <mxGeometry x="399" y="407" width="190" height="80" as="geometry" />
        </mxCell>
        <mxCell id="JpyrA56GdO4GCkvxSW_a-32" value="" style="image;aspect=fixed;perimeter=ellipsePerimeter;html=1;align=center;shadow=0;dashed=0;spacingTop=3;image=img/lib/active_directory/generic_server.svg;" vertex="1" parent="1">
          <mxGeometry x="480" y="437" width="28.000000000000004" height="50" as="geometry" />
        </mxCell>
        <mxCell id="JpyrA56GdO4GCkvxSW_a-33" value="Tomcat Server" style="text;html=1;align=center;verticalAlign=middle;whiteSpace=wrap;rounded=0;" vertex="1" parent="1">
          <mxGeometry x="449" y="406" width="90" height="30" as="geometry" />
        </mxCell>
      </root>
    </mxGraphModel>
  </diagram>
</mxfile>
